<svg xmlns="http://www.w3.org/2000/svg" width="512" height="512" viewBox="0 0 512 512">
  <defs>
    <linearGradient id="g" x1="0" y1="0" x2="1" y2="1">
      <stop offset="0" stop-color="#00b8a9"/>
      <stop offset="1" stop-color="#00897b"/>
    </linearGradient>
  </defs>
  <rect width="512" height="512" rx="64" fill="url(#g)"/>
  <g fill="none" stroke="#ffffff" stroke-width="18" stroke-linecap="round" stroke-linejoin="round">
    <path d="M96 150h260a60 60 0 0 1 60 60v40a60 60 0 0 1-60 60H216l-70 52 16-52H96a60 60 0 0 1-60-60v-40a60 60 0 0 1 60-60z"/>
    <path d="M140 284c24 0 24 20 48 20s24-20 48-20 24 20 48 20 24-20 48-20"/>
    <path d="M340 190l50 18v56l-50 18v-92z"/>
    <path d="M340 230l-46 14a16 16 0 0 0-11 15v18a16 16 0 0 0 11 15l46 14"/>
    <path d="M400 228q16 8 16 24t-16 24"/>
  </g>
  <g fill="#ffffff" font-family="Poppins, Arial, sans-serif" text-anchor="middle">
    <text x="256" y="438" font-size="54" font-weight="700">COSTACHISME</text>
  </g>
</svg>
